PathFileType	3	(X/Y/Z)	walking_1__fused_aligned.trc
DataRate	CameraRate	NumFrames	NumMarkers	Units	OrigDataRate	OrigDataStartFrame	OrigNumFrames
100.0	100.0	6	19	mm	100.0	2290	6105
Frame#	Time	pelvis			neck			head			hip_left			hip_right			knee_left			knee_right			ankle_left			ankle_right			heel_left			heel_right			toe_left			toe_right			shoulder_left			shoulder_right			elbow_left			elbow_right			wrist_left			wrist_right			
		X1	Y1	Z1	X2	Y2	Z2	X3	Y3	Z3	X4	Y4	Z4	X5	Y5	Z5	X6	Y6	Z6	X7	Y7	Z7	X8	Y8	Z8	X9	Y9	Z9	X10	Y10	Z10	X11	Y11	Z11	X12	Y12	Z12	X13	Y13	Z13	X14	Y14	Z14	X15	Y15	Z15	X16	Y16	Z16	X17	Y17	Z17	X18	Y18	Z18	X19	Y19	Z19	
2290	22.89000	-39.475332	937.401622	190.004142	-55.177766	1502.214737	254.091783	-42.865527	1592.499855	401.335489	37.248027	938.937088	190.837319	-116.198564	935.866176	189.170959	59.730316	530.685878	373.568032	-173.915901	494.569277	180.966559	81.560237	105.784668	412.526182	-195.268567	174.707790	-73.891177	83.673446	48.541154	388.779811	-193.334316	150.586006	-125.110759	60.735969	90.359838	615.410220	-206.723450	49.704716	47.452309	119.892064	1457.471506	185.161409	-237.602697	1437.972509	250.981239	189.314086	1168.944248	121.332916	-294.792904	1146.790898	312.707776	258.747431	908.760638	144.618129	-266.390632	955.466224	511.801986
2291	22.90000	-37.222129	937.447632	189.423322	-52.682345	1502.080329	253.988910	-41.123611	1592.304903	401.278423	39.535845	939.116369	190.181910	-113.979969	935.778916	188.664710	61.144566	529.621583	369.762720	-171.556031	495.573018	185.537890	81.889839	104.822776	408.041455	-192.980138	178.240788	-74.611433	83.828184	47.673461	384.245162	-191.043456	155.044767	-126.381653	61.352981	88.902532	610.536651	-204.121736	50.220023	44.237077	122.539188	1457.012706	185.904925	-234.959310	1437.969948	249.848189	191.597614	1168.318934	122.092302	-291.858166	1146.518386	309.678741	259.638956	907.912505	145.841727	-265.243925	953.087813	505.501148
2292	22.91000	-34.968926	937.493642	188.842501	-50.186925	1501.945920	253.886037	-39.381695	1592.109951	401.221356	41.823663	939.295650	189.526502	-111.761374	935.691656	188.158462	62.558817	528.557288	365.957407	-169.196160	496.576758	190.109221	82.219441	103.860883	403.556727	-190.691710	181.773787	-75.331690	83.982923	46.805767	379.710513	-188.752596	159.503528	-127.652546	61.969993	87.445225	605.663082	-201.520022	50.735330	41.021845	125.186313	1456.553906	186.648442	-232.315924	1437.967387	248.715140	193.881143	1167.693620	122.851687	-288.923427	1146.245874	306.649706	260.530481	907.064372	147.065325	-264.097218	950.709403	499.200310
2293	22.92000	-32.715723	937.539652	188.261680	-47.691504	1501.811512	253.783165	-37.639779	1591.914998	401.164290	44.111481	939.474931	188.871093	-109.542779	935.604397	187.652213	63.973067	527.492992	362.152095	-166.836289	497.580499	194.680552	82.549043	102.898990	399.072000	-188.403281	185.306785	-76.051947	84.137661	45.938073	375.175864	-186.461735	163.962289	-128.923439	62.587005	85.987919	600.789513	-198.918308	51.250638	37.806613	127.833438	1456.095106	187.391959	-229.672537	1437.964827	247.582090	196.164671	1167.068307	123.611073	-285.988689	1145.973362	303.620671	261.422007	906.216239	148.288923	-262.950510	948.330992	492.899471
2294	22.93000	-30.462520	937.585662	187.680860	-45.196084	1501.677103	253.680292	-35.897863	1591.720046	401.107223	46.399299	939.654212	188.215685	-107.324184	935.517137	187.145965	65.387318	526.428697	358.346783	-164.476418	498.584239	199.251883	82.878646	101.937097	394.587272	-186.114852	188.839784	-76.772203	84.292400	45.070379	370.641215	-184.170875	168.421050	-130.194332	63.204017	84.530612	595.915944	-196.316593	51.765945	34.591381	130.480563	1455.636305	188.135475	-227.029150	1437.962266	246.449040	198.448199	1166.442993	124.370458	-283.053951	1145.700850	300.591636	262.313532	905.368105	149.512521	-261.803803	945.952582	486.598633
2295	22.94000	-28.209317	937.631672	187.100039	-42.700663	1501.542694	253.577419	-34.155947	1591.525094	401.050157	48.687118	939.833493	187.560277	-105.105589	935.429877	186.639716	66.801568	525.364402	354.541471	-162.116547	499.587980	203.823214	83.208248	100.975205	390.102545	-183.826423	192.372783	-77.492460	84.447138	44.202685	366.106566	-181.880015	172.879812	-131.465225	63.821030	83.073306	591.042376	-193.714879	52.281252	31.376149	133.127688	1455.177505	188.878992	-224.385763	1437.959706	245.315991	200.731728	1165.817679	125.129844	-280.119212	1145.428338	297.562601	263.205058	904.519972	150.736120	-260.657096	943.574171	480.297795
